<svg version="1" xmlns="http://www.w3.org/2000/svg" width="933.333" height="933.333" viewBox="0 0 700.000000 700.000000"><path d="M340 1.4c-2.5.7-5.8 2-7.5 2.9C328.8 6.2 31 237.8 25.6 242.8c-4.8 4.7-7.8 9.3-9.9 15.6C14.1 263 14 279.6 14 466c0 223.7-.5 207.7 6.3 217.7 4.5 6.4 11.6 11.6 19.4 14.2L46 700h608l6.3-2.1c7.8-2.6 14.9-7.8 19.4-14.2 6.8-10 6.3 6 6.3-217.7 0-186.4-.1-203-1.7-207.6-2.2-6.7-5.2-11.1-10.9-16.4-2.7-2.5-72.1-56.7-154.1-120.5C406.5 33.8 368.7 4.9 364.3 3.1 357.4.2 346.5-.5 340 1.4zm-10 377.4v14.7l8.3 1.8c9.9 2 20.8 6.3 27.4 10.8 6.5 4.4 15.3 11.8 15.3 13 0 .8-14.5 17.5-21.5 24.8l-2.3 2.3-6.3-4.8c-6.2-4.8-15.5-9.5-21.2-10.9l-2.7-.7.2 23.7.3 23.8 8.5 1.7c15.8 3.2 28.8 9.8 37.2 18.9 13.1 14.3 17 35.7 10.2 55.9-7 21-23.2 34.5-49.1 41.2l-4.2 1.1-.3 15.2-.3 15.2h-32l-.3-14.6-.3-14.6-6.3-.7c-9.3-.9-21-4.3-30.1-8.5-8.4-4-20.6-13-24.3-18l-2.2-3 12.1-13.1c6.6-7.1 12.4-13 12.8-13 .4 0 2 1.4 3.7 3.1 7.1 7.5 27.5 17.8 35.2 17.9h2.2v-51.7l-6.2-1.2c-9.4-1.8-18.5-4.9-26-8.8-18.2-9.5-28.9-30-27.4-52.4 1.9-28.5 19.3-46.7 50.9-52.9l5.7-1.1V364h33v14.8zm-202 106c4.1 1.6 12.6 5.5 18.8 8.5 16 7.9 22.9 8.5 29.6 2.6 1.8-1.6 4.5-5.6 6-8.9 1.5-3.4 3.1-6 3.5-5.8.4.2 7.1 2.5 14.9 5.3l14.2 5-.6 3c-2.2 10.9-12.1 26.9-20.1 32.8-7.6 5.4-13.4 7.2-23.8 7.2-10.7-.1-12.2-.5-33.5-10.3-18.1-8.3-24.2-9.7-29.8-6.8-3.8 2-7.4 6.5-10.1 12.8l-2 4.7-6.3-2.3c-3.5-1.3-9.9-3.6-14.3-5.1-4.4-1.6-8.3-3.1-8.8-3.5-.4-.3.4-3.9 1.8-7.9 6.2-18.4 17.4-30.4 32-34.2 1.7-.5 7.1-.7 12-.5 7.2.3 10.5 1 16.5 3.4zM549 632v17H413v-34h136v17z"/><path d="M293.2 430.7c-9.2 3.2-14.4 12.8-12.8 23.5 1.2 8.2 4.9 12.2 14.5 15.9l5.1 1.9v-21.5c0-16.6-.3-21.5-1.2-21.4-.7 0-3.2.7-5.6 1.6zM327 538.9v23.2l2.3-.7c7-2.1 11.9-6 15-11.9 3-5.6 3.1-18.5.2-23.5-2.3-3.9-9.3-8.6-14.2-9.6l-3.3-.7v23.2z"/></svg>